<?xml version="1.0" encoding="UTF-8" standalone="no"?>
<!DOCTYPE svg PUBLIC "-//W3C//DTD SVG 1.0//EN"
 "http://www.w3.org/TR/2001/REC-SVG-20010904/DTD/svg10.dtd" [
 <!ATTLIST svg xmlns:xlink CDATA #FIXED "http://www.w3.org/1999/xlink">
]>
<!-- Title: markovmodel Pages: 1 -->
<svg width="244pt" height="160pt"
 viewBox = "0 0 244 160"
 xmlns="http://www.w3.org/2000/svg" xmlns:xlink="http://www.w3.org/1999/xlink">
<g id="graph0" class="graph" style="font-family:Times-Roman;font-size:14.00;">
<title>markovmodel</title>
<!-- x1 -->
<g id="node1" class="node"><title>x1</title>
<ellipse style="fill:#eee7bf;stroke:#eee7bf;" cx="32" cy="43" rx="22" ry="23"/>
<text text-anchor="middle" x="32" y="48" style="font-family:Courier;">x1</text>
</g>
<!-- x2 -->
<g id="node2" class="node"><title>x2</title>
<ellipse style="fill:#eee7bf;stroke:#eee7bf;" cx="122" cy="43" rx="22" ry="23"/>
<text text-anchor="middle" x="122" y="48" style="font-family:Courier;">x2</text>
</g>
<!-- x1&#45;&gt;x2 -->
<g id="edge2" class="edge"><title>x1&#45;&gt;x2</title>
<path style="fill:none;stroke:black;" d="M51,29C55,26 59,24 64,23 75,20 78,20 90,23 91,23 93,24 94,24"/>
<polygon style="fill:black;stroke:black;" points="96,21 103,29 93,27 96,21"/>
<text text-anchor="middle" x="77" y="18" style="font-family:Courier;">a12</text>
</g>
<!-- y1 -->
<g id="node4" class="node"><title>y1</title>
<text text-anchor="middle" x="32" y="142" style="font-family:Courier;">y1</text>
</g>
<!-- x1&#45;&gt;y1 -->
<g id="edge8" class="edge"><title>x1&#45;&gt;y1</title>
<path style="fill:none;stroke:black;" d="M32,67C32,80 32,95 32,109"/>
<polygon style="fill:black;stroke:black;" points="36,109 32,119 29,109 36,109"/>
<text text-anchor="middle" x="41" y="98" style="font-family:Courier;">b1</text>
</g>
<!-- x2&#45;&gt;x1 -->
<g id="edge4" class="edge"><title>x2&#45;&gt;x1</title>
<path style="fill:none;stroke:black;" d="M66,43C77,43 88,43 98,43"/>
<polygon style="fill:black;stroke:black;" points="66,46 56,43 66,39 66,46"/>
<text text-anchor="middle" x="77" y="40" style="font-family:Courier;">a21</text>
</g>
<!-- x3 -->
<g id="node3" class="node"><title>x3</title>
<ellipse style="fill:#eee7bf;stroke:#eee7bf;" cx="212" cy="43" rx="22" ry="23"/>
<text text-anchor="middle" x="212" y="48" style="font-family:Courier;">x3</text>
</g>
<!-- x2&#45;&gt;x3 -->
<g id="edge6" class="edge"><title>x2&#45;&gt;x3</title>
<path style="fill:none;stroke:black;" d="M146,43C156,43 167,43 178,43"/>
<polygon style="fill:black;stroke:black;" points="178,39 188,43 178,46 178,39"/>
<text text-anchor="middle" x="167" y="40" style="font-family:Courier;">a23</text>
</g>
<!-- y2 -->
<g id="node5" class="node"><title>y2</title>
<text text-anchor="middle" x="122" y="142" style="font-family:Courier;">y2</text>
</g>
<!-- x2&#45;&gt;y2 -->
<g id="edge10" class="edge"><title>x2&#45;&gt;y2</title>
<path style="fill:none;stroke:black;" d="M122,67C122,80 122,95 122,109"/>
<polygon style="fill:black;stroke:black;" points="126,109 122,119 119,109 126,109"/>
<text text-anchor="middle" x="131" y="98" style="font-family:Courier;">b2</text>
</g>
<!-- y3 -->
<g id="node6" class="node"><title>y3</title>
<text text-anchor="middle" x="212" y="142" style="font-family:Courier;">y3</text>
</g>
<!-- x3&#45;&gt;y3 -->
<g id="edge12" class="edge"><title>x3&#45;&gt;y3</title>
<path style="fill:none;stroke:black;" d="M212,67C212,80 212,95 212,109"/>
<polygon style="fill:black;stroke:black;" points="216,109 212,119 209,109 216,109"/>
<text text-anchor="middle" x="220" y="98" style="font-family:Courier;">b3</text>
</g>
</g>
</svg>
